<mxfile host="Electron" modified="2024-02-25T10:34:01.595Z" agent="Mozilla/5.0 (X11; Linux x86_64) AppleWebKit/537.36 (KHTML, like Gecko) draw.io/23.1.5 Chrome/120.0.6099.109 Electron/28.2.3 Safari/537.36" etag="IKfJA_DZBuPlG1O3WgXD" version="23.1.5" type="device">
  <diagram name="Page-1" id="FQGKYs_hwpku-xk34qYB">
    <mxGraphModel dx="812" dy="477" grid="1" gridSize="10" guides="1" tooltips="1" connect="1" arrows="1" fold="1" page="1" pageScale="1" pageWidth="850" pageHeight="1100" math="0" shadow="0">
      <root>
        <mxCell id="0" />
        <mxCell id="1" parent="0" />
        <mxCell id="YQrrE9ldobGw4m-E9e90-2" value="&lt;div style=&quot;&quot;&gt;&lt;span style=&quot;background-color: initial;&quot;&gt;&amp;nbsp; &amp;nbsp;Webserver&lt;/span&gt;&lt;/div&gt;&lt;br&gt;&lt;br&gt;&lt;br&gt;&lt;br&gt;&lt;br&gt;&lt;br&gt;" style="rounded=1;whiteSpace=wrap;html=1;align=left;fillColor=none;" parent="1" vertex="1">
          <mxGeometry x="290" y="1160" width="310" height="110" as="geometry" />
        </mxCell>
        <mxCell id="YQrrE9ldobGw4m-E9e90-1" value="Lean Language Server" style="rounded=1;whiteSpace=wrap;html=1;fillColor=none;" parent="1" vertex="1">
          <mxGeometry x="460" y="1190" width="120" height="60" as="geometry" />
        </mxCell>
        <mxCell id="YQrrE9ldobGw4m-E9e90-30" value="Synchronisation" style="edgeStyle=orthogonalEdgeStyle;rounded=0;orthogonalLoop=1;jettySize=auto;html=1;exitX=1;exitY=0.5;exitDx=0;exitDy=0;entryX=0;entryY=0.5;entryDx=0;entryDy=0;startArrow=block;startFill=1;" parent="1" source="YQrrE9ldobGw4m-E9e90-5" target="YQrrE9ldobGw4m-E9e90-23" edge="1">
          <mxGeometry relative="1" as="geometry" />
        </mxCell>
        <mxCell id="YQrrE9ldobGw4m-E9e90-5" value="Github Repository" style="rounded=1;whiteSpace=wrap;html=1;fillColor=none;" parent="1" vertex="1">
          <mxGeometry x="60" y="1190" width="120" height="60" as="geometry" />
        </mxCell>
        <mxCell id="YQrrE9ldobGw4m-E9e90-15" value="&lt;div style=&quot;&quot;&gt;&lt;span style=&quot;background-color: initial;&quot;&gt;&amp;nbsp; &amp;nbsp;Browser&lt;/span&gt;&lt;/div&gt;&lt;br&gt;&lt;br&gt;&lt;br&gt;&lt;br&gt;&lt;br&gt;&lt;br&gt;" style="rounded=1;whiteSpace=wrap;html=1;align=left;fillColor=none;" parent="1" vertex="1">
          <mxGeometry x="350" y="950" width="190" height="110" as="geometry" />
        </mxCell>
        <mxCell id="YQrrE9ldobGw4m-E9e90-33" value="Ã„nderungen" style="edgeStyle=orthogonalEdgeStyle;shape=connector;rounded=0;orthogonalLoop=1;jettySize=auto;html=1;exitX=0.5;exitY=1;exitDx=0;exitDy=0;entryX=0.5;entryY=0;entryDx=0;entryDy=0;labelBackgroundColor=default;strokeColor=default;align=center;verticalAlign=middle;fontFamily=Helvetica;fontSize=11;fontColor=default;startArrow=none;startFill=0;endArrow=none;endFill=0;" parent="1" source="YQrrE9ldobGw4m-E9e90-14" target="YQrrE9ldobGw4m-E9e90-2" edge="1">
          <mxGeometry relative="1" as="geometry" />
        </mxCell>
        <mxCell id="YQrrE9ldobGw4m-E9e90-14" value="Monaco Editor (LSP Client)" style="rounded=1;whiteSpace=wrap;html=1;fillColor=none;" parent="1" vertex="1">
          <mxGeometry x="385" y="980" width="120" height="60" as="geometry" />
        </mxCell>
        <mxCell id="YQrrE9ldobGw4m-E9e90-23" value="Lokale Kopie des Repositorys" style="rounded=1;whiteSpace=wrap;html=1;fillColor=none;" parent="1" vertex="1">
          <mxGeometry x="310" y="1190" width="120" height="60" as="geometry" />
        </mxCell>
        <mxCell id="YQrrE9ldobGw4m-E9e90-34" value="" style="edgeStyle=orthogonalEdgeStyle;shape=connector;rounded=0;orthogonalLoop=1;jettySize=auto;html=1;exitX=0.5;exitY=0;exitDx=0;exitDy=0;labelBackgroundColor=default;strokeColor=default;align=center;verticalAlign=middle;fontFamily=Helvetica;fontSize=11;fontColor=default;startArrow=none;startFill=0;endArrow=classic;entryX=1;entryY=0.5;entryDx=0;entryDy=0;" parent="1" source="YQrrE9ldobGw4m-E9e90-2" target="YQrrE9ldobGw4m-E9e90-23" edge="1">
          <mxGeometry relative="1" as="geometry">
            <mxPoint x="500" y="1070" as="sourcePoint" />
            <mxPoint x="500" y="1190" as="targetPoint" />
            <Array as="points">
              <mxPoint x="445" y="1220" />
            </Array>
          </mxGeometry>
        </mxCell>
        <mxCell id="YQrrE9ldobGw4m-E9e90-35" value="" style="edgeStyle=orthogonalEdgeStyle;shape=connector;rounded=0;orthogonalLoop=1;jettySize=auto;html=1;exitX=0.5;exitY=0;exitDx=0;exitDy=0;labelBackgroundColor=default;strokeColor=default;align=center;verticalAlign=middle;fontFamily=Helvetica;fontSize=11;fontColor=default;startArrow=none;startFill=0;endArrow=classic;entryX=1;entryY=0.5;entryDx=0;entryDy=0;" parent="1" edge="1">
          <mxGeometry relative="1" as="geometry">
            <mxPoint x="445" y="1160" as="sourcePoint" />
            <mxPoint x="460" y="1220" as="targetPoint" />
            <Array as="points">
              <mxPoint x="445" y="1220" />
            </Array>
          </mxGeometry>
        </mxCell>
        <mxCell id="YQrrE9ldobGw4m-E9e90-36" value="&amp;nbsp; &amp;nbsp;Lean&lt;br&gt;Infoansicht" style="endArrow=classic;html=1;rounded=0;labelBackgroundColor=default;strokeColor=default;align=left;verticalAlign=top;fontFamily=Helvetica;fontSize=11;fontColor=default;shape=connector;edgeStyle=orthogonalEdgeStyle;exitX=0.5;exitY=0;exitDx=0;exitDy=0;entryX=0.795;entryY=1.01;entryDx=0;entryDy=0;entryPerimeter=0;labelPosition=right;verticalLabelPosition=bottom;" parent="1" source="YQrrE9ldobGw4m-E9e90-1" target="YQrrE9ldobGw4m-E9e90-14" edge="1">
          <mxGeometry x="0.0018" width="50" height="50" relative="1" as="geometry">
            <mxPoint x="450" y="1140" as="sourcePoint" />
            <mxPoint x="500" y="1090" as="targetPoint" />
            <mxPoint as="offset" />
          </mxGeometry>
        </mxCell>
        <mxCell id="YQrrE9ldobGw4m-E9e90-38" value="Dateien" style="endArrow=classic;html=1;rounded=0;labelBackgroundColor=default;strokeColor=default;align=right;verticalAlign=top;fontFamily=Helvetica;fontSize=11;fontColor=default;shape=connector;edgeStyle=orthogonalEdgeStyle;entryX=0.202;entryY=1.01;entryDx=0;entryDy=0;entryPerimeter=0;exitX=0.5;exitY=0;exitDx=0;exitDy=0;labelPosition=left;verticalLabelPosition=bottom;" parent="1" source="YQrrE9ldobGw4m-E9e90-23" target="YQrrE9ldobGw4m-E9e90-14" edge="1">
          <mxGeometry width="50" height="50" relative="1" as="geometry">
            <mxPoint x="450" y="1140" as="sourcePoint" />
            <mxPoint x="500" y="1090" as="targetPoint" />
          </mxGeometry>
        </mxCell>
      </root>
    </mxGraphModel>
  </diagram>
</mxfile>
